<svg id="Layer_1" data-name="Layer 1" xmlns="http://www.w3.org/2000/svg" viewBox="0 0 2560 163.91">
  <defs>
    <style>
      .cls-1 {
        fill: none;
        stroke: #0d2646;
        stroke-miterlimit: 10;
        stroke-width: 4px;
      }

      .cls-2 {
        fill: #0d2646;
      }
    </style>
  </defs>
  <line class="cls-1" y1="81.96" x2="1142.79" y2="81.96"/>
  <g>
    <g>
      <path class="cls-2" d="M1211.47,83.92a2,2,0,0,1-2-2A70.57,70.57,0,0,1,1280,11.47a2,2,0,1,1,0,3.92A66.64,66.64,0,0,0,1213.44,82,2,2,0,0,1,1211.47,83.92Z"/>
      <path class="cls-2" d="M1248.54,144.81a2,2,0,0,1-.9-.22,71.22,71.22,0,0,1-30.39-30.49,2,2,0,0,1,3.49-1.79,67.36,67.36,0,0,0,28.71,28.8,2,2,0,0,1-.91,3.7Z"/>
      <path class="cls-2" d="M1280,152.44a2,2,0,0,1,0-3.92A66.64,66.64,0,0,0,1346.56,82a2,2,0,0,1,3.93,0A70.57,70.57,0,0,1,1280,152.44Z"/>
      <path class="cls-2" d="M1340.58,51.85a2,2,0,0,1-1.74-1,66.42,66.42,0,0,0-28.57-28.15,2,2,0,0,1,1.78-3.5A70.4,70.4,0,0,1,1342.31,49a2,2,0,0,1-.82,2.65A1.86,1.86,0,0,1,1340.58,51.85Z"/>
    </g>
    <g>
      <path class="cls-2" d="M1246.83,117.09a2,2,0,0,1-1.39-.57,48.92,48.92,0,0,1,0-69.09,2,2,0,0,1,2.78,2.77,45,45,0,0,0,0,63.54,2,2,0,0,1-1.39,3.35Z"/>
      <path class="cls-2" d="M1280,130.81a49.22,49.22,0,0,1-15-2.33,2,2,0,0,1,1.2-3.74,45.36,45.36,0,0,0,27.45.05,2,2,0,1,1,1.19,3.74A49.07,49.07,0,0,1,1280,130.81Z"/>
      <path class="cls-2" d="M1313.15,117.09a2,2,0,0,1-1.39-3.35,44.93,44.93,0,0,0,0-63.54,2,2,0,1,1,2.77-2.77,48.85,48.85,0,0,1,0,69.09A2,2,0,0,1,1313.15,117.09Z"/>
      <path class="cls-2" d="M1265.53,39.32a2,2,0,0,1-.61-3.83,48.81,48.81,0,0,1,29.44-.22,2,2,0,1,1-1.15,3.75,44.78,44.78,0,0,0-27.08.2A1.8,1.8,0,0,1,1265.53,39.32Z"/>
    </g>
    <g>
      <path class="cls-2" d="M1280,108.06a26,26,0,0,1-18.46-7.65,2,2,0,0,1,2.77-2.77,22.17,22.17,0,0,0,31.37,0,2,2,0,0,1,2.78,2.77A26,26,0,0,1,1280,108.06Z"/>
      <path class="cls-2" d="M1303,91.33a2.08,2.08,0,0,1-.6-.09,2,2,0,0,1-1.27-2.47,22.38,22.38,0,0,0,0-13.55,2,2,0,1,1,3.73-1.19,26.36,26.36,0,0,1,0,15.94A2,2,0,0,1,1303,91.33Z"/>
      <path class="cls-2" d="M1297.08,66.85a2,2,0,0,1-1.39-.58,22.2,22.2,0,0,0-31.37,0,2,2,0,0,1-2.77-2.77,26.12,26.12,0,0,1,36.92,0,2,2,0,0,1-1.39,3.35Z"/>
      <path class="cls-2" d="M1257,91.36a2,2,0,0,1-1.87-1.35,26.06,26.06,0,0,1-.12-15.73,2,2,0,0,1,2.45-1.3,2,2,0,0,1,1.3,2.45,22.18,22.18,0,0,0,.1,13.37,2,2,0,0,1-1.26,2.47A2.08,2.08,0,0,1,1257,91.36Z"/>
    </g>
  </g>
  <line class="cls-1" x1="1417.21" y1="81.96" x2="2560" y2="81.96"/>
</svg>
