<svg id="Layer_1" data-name="Layer 1" xmlns="http://www.w3.org/2000/svg" viewBox="0 0 2560 163.91">
  <defs>
    <style>
      .cls-1 {
        fill: none;
        stroke: #0d2646;
        stroke-miterlimit: 10;
        stroke-width: 4px;
      }

      .cls-2 {
        fill: #0d2646;
      }
    </style>
  </defs>
  <line class="cls-1" y1="81.96" x2="1142.79" y2="81.96"/>
  <line class="cls-1" x1="1417.21" y1="81.96" x2="2560" y2="81.96"/>
  <g>
    <path class="cls-2" d="M1269.21,129.46c-16.42,0-32.77-.3-48.92-.59a4.22,4.22,0,0,1-2.59-.76,3.8,3.8,0,0,1-1.33-2.76c-1.41-13.58-.58-27.3.23-40.58.52-8.48,1.05-17.25,1-25.83a135.5,135.5,0,0,0-1.1-17.15c-.06-.46-.14-.89-.21-1.29-.3-1.62-.71-3.84,1.32-5.15h0a6.14,6.14,0,0,1,3.33-.79l.66,0c3.07-.06,6.14-.11,9.2-.2,14.83-.4,29.54-1.1,41.42-2a2.09,2.09,0,0,1,2.24,2,66.6,66.6,0,0,0,13,37.16c9.22,12.19,19.78,19.42,32.28,22.11a115.94,115.94,0,0,0,14.65,1.86c4,.34,8.24.7,12.35,1.4,2.91.49,5.94,1.21,8.39,3.1,4,3.09,4.87,8.05,4.89,11.67,0,1.56-.11,3.11-.22,4.6a32.55,32.55,0,0,0-.11,6.22,2.1,2.1,0,0,1-1.82,2.3C1328.52,128.49,1298.74,129.46,1269.21,129.46Zm-48.7-4.78c44.35.82,90.18,1.66,134.88-3.81,0-1.68.09-3.33.22-4.94s.23-2.86.22-4.25c0-2.68-.6-6.32-3.26-8.38-1.73-1.33-4.17-1.88-6.54-2.29-3.94-.67-8-1-12-1.34a122.07,122.07,0,0,1-15.19-1.94C1305.32,94.82,1294,87.07,1284.11,74A70.4,70.4,0,0,1,1270.4,36.7c-11.55.8-25.47,1.44-39.49,1.83-3.08.08-6.16.14-9.23.2H1221a6.41,6.41,0,0,0-.8.06c0,.28.11.65.16.94.09.47.18,1,.25,1.5a141.8,141.8,0,0,1,1.14,17.66c.07,8.74-.47,17.58-1,26.13C1220,98.05,1219.17,111.52,1220.51,124.68Zm-.53,0Z"/>
    <path class="cls-2" d="M1269.32,145.12H1261a2.1,2.1,0,0,1-2.1-2.09c0-.6-.18-1-.45-1s-.46.41-.46,1a2.09,2.09,0,0,1-2.09,2.09h-9.82A2.1,2.1,0,0,1,1244,143c0-.64-.2-1.09-.49-1.09s-.5.45-.5,1.09a2.09,2.09,0,0,1-2.09,2.09h-9.83A2.1,2.1,0,0,1,1229,143c0-1.37-.88-1.37-.88,0a2.1,2.1,0,0,1-2.1,2.09h-7.23a2.11,2.11,0,0,1-2.1-2.06l-.31-18.92,4.18-.07.29,16.86h3.42a4.51,4.51,0,0,1,8.58,0h6.32a4.57,4.57,0,0,1,8.67,0h6.34a4.55,4.55,0,0,1,8.58,0H1268l2.55-5.67a2.09,2.09,0,0,1,1.91-1.24h0l33.89.52a2.08,2.08,0,0,1,1.87,1.22l1.4,3,1.9-.1a4.62,4.62,0,0,1,4.07-3.29,4.41,4.41,0,0,1,4.23,2.65c2.15-.2,4.3-.44,6.42-.71a4.51,4.51,0,0,1,8.24-1.21c2.28-.38,4.58-.8,6.87-1.26a4.36,4.36,0,0,1,3.45-3.54,4.51,4.51,0,0,1,4.46,1.79c1.74-.42,3.47-.86,5.17-1.32a95.73,95.73,0,0,0,1-10.09l4.18.2a86.53,86.53,0,0,1-1.27,12,2.11,2.11,0,0,1-1.5,1.6c-2.67.74-5.44,1.44-8.22,2.09a2.1,2.1,0,0,1-2.51-1.53c-.12-.49-.36-.63-.49-.61s-.21.33-.14.86a2.09,2.09,0,0,1-1.64,2.34c-3.46.72-7,1.36-10.38,1.9a2.1,2.1,0,0,1-1.57-.38,2.13,2.13,0,0,1-.83-1.4c-.06-.45-.18-.64-.46-.63s-.35.52-.32.81a2.08,2.08,0,0,1-1.79,2.33c-3.28.44-6.64.82-10,1.11a2.07,2.07,0,0,1-2.26-1.84c-.09-.73-.35-1-.39-1a1.24,1.24,0,0,0-.44,1.11,2.09,2.09,0,0,1-2,2.08q-2.51.16-5,.27a2,2,0,0,1-2-1.22l-1.44-3.12-31.2-.48-2.53,5.65A2.11,2.11,0,0,1,1269.32,145.12Z"/>
    <path class="cls-2" d="M1219.72,61l-.09-4.18,35.54-.76c.4-.08,1.31-.93,1.31-3.59l-1-15.09,4.18-.28,1,15.23c0,6.1-3.49,7.83-5.35,7.91Z"/>
    <path class="cls-2" d="M1218,39.44a2.07,2.07,0,0,1-1.7-.88,2,2,0,0,1-.39-1.14c-.18-.36-.5-.94-.78-1.44-1.9-3.42-5.07-9.15-3.33-13.21,1.06-2.48,3-3.92,5.18-4,2.42-.08,4.77,1.59,6.07,4.28,2.17,4.52.93,10.29-3.32,15.47a2.3,2.3,0,0,1-1,.76A2.1,2.1,0,0,1,1218,39.44ZM1217,23h0c-.71,0-1.2.91-1.42,1.44-.84,1.95,1.37,6.29,2.72,8.76,2.4-4.32,1.36-7.34.9-8.28C1218.59,23.58,1217.65,23,1217,23Z"/>
  </g>
</svg>
