<svg id="Layer_1" data-name="Layer 1" xmlns="http://www.w3.org/2000/svg" viewBox="0 0 2560 163.91">
  <defs>
    <style>
      .cls-1 {
        fill: #0d2646;
      }

      .cls-2 {
        fill: none;
        stroke: #0d2646;
        stroke-miterlimit: 10;
        stroke-width: 4px;
      }
    </style>
  </defs>
  <g>
    <g>
      <path class="cls-1" d="M1267.3,60c0-10.39,3.49-15.48,7.18-20.87,3.85-5.62,7.83-11.43,7.83-22.95a1.84,1.84,0,1,0-3.68,0c0,10.38-3.49,15.48-7.19,20.87-3.84,5.61-7.82,11.42-7.82,22.95a38.54,38.54,0,0,0,1.11,9.57c1.47.68,2.94,1.3,4.43,1.84A32.2,32.2,0,0,1,1267.3,60Z"/>
      <path class="cls-1" d="M1273.44,85.94a30.12,30.12,0,0,1,5.19,17.88c0,10.39-3.49,15.48-7.19,20.87-3.84,5.62-7.82,11.42-7.82,22.95a1.84,1.84,0,1,0,3.68,0c0-10.39,3.49-15.48,7.18-20.87,3.85-5.61,7.83-11.42,7.83-23a33.75,33.75,0,0,0-3.9-16.7Q1275.85,86.52,1273.44,85.94Z"/>
      <path class="cls-1" d="M1281.37,60.1c0-10.39,3.49-15.48,7.19-20.87,3.84-5.62,7.83-11.43,7.83-22.95a1.85,1.85,0,0,0-3.69,0c0,10.38-3.49,15.48-7.18,20.87-3.85,5.61-7.83,11.42-7.83,23A34.81,34.81,0,0,0,1280.27,74c1.36.16,2.77.28,4.21.34A30.44,30.44,0,0,1,1281.37,60.1Z"/>
      <path class="cls-1" d="M1289.58,89.62a30.28,30.28,0,0,1,3.12,14.29c0,10.39-3.49,15.48-7.18,20.87-3.85,5.62-7.83,11.42-7.83,22.95a1.84,1.84,0,1,0,3.68,0c0-10.39,3.49-15.48,7.19-20.87,3.84-5.61,7.83-11.42,7.83-23a35.33,35.33,0,0,0-2.31-13.25C1292.62,90.31,1291.11,90,1289.58,89.62Z"/>
    </g>
    <path class="cls-1" d="M1281.87,138.38a1.88,1.88,0,0,1-.12-3.75c8.44-.58,36-4.45,36-29.94,0-12.58-6.53-20.56-20.55-25.11a124.25,124.25,0,0,0-13.43-3.06l-2.32-.44c-3.34-.62-6.8-1.26-9.76-2.13-8.18-2.47-20.52-6.19-20.52-16.66,0-9.5,7.14-16.68,19.08-19.19a1.87,1.87,0,0,1,.77,3.67c-10.08,2.12-16.09,7.92-16.09,15.52s10.3,10.79,17.83,13.06c2.77.81,6.13,1.44,9.38,2.05l2.32.43A127.23,127.23,0,0,1,1298.31,76c15.6,5.06,23.17,14.44,23.17,28.69,0,22.84-20.39,32.37-39.48,33.68Zm-15-.86a1.39,1.39,0,0,1-.35,0c-9.43-1.75-18.33-5.71-27.22-12.09a1.88,1.88,0,0,1,2.19-3c8.43,6,16.84,9.8,25.72,11.46a1.88,1.88,0,0,1-.34,3.72Zm5.63-11.19-.25,0c-8.37-1.08-17.64-4.92-27.53-11.43a1.87,1.87,0,1,1,2.06-3.13c9.42,6.19,18.15,9.84,26,10.84a1.88,1.88,0,0,1-.23,3.74Zm16.45-1.21a1.88,1.88,0,0,1-.47-3.69c6.2-1.63,16.62-6,16.62-16.74,0-6.68-4.31-10.82-14-13.41-2-.53-4.15-1-7.07-1.53a73.44,73.44,0,0,1-9.14-1.65C1250.42,84,1238.52,74,1238.52,57.59c0-22.78,20.43-31.55,39.54-32.16a1.88,1.88,0,1,1,.12,3.75c-6,.19-35.91,2.46-35.91,28.41,0,14.28,10.91,23,33.36,26.83l.19,0a69.73,69.73,0,0,0,8.82,1.58c3.1.56,5.38,1,7.46,1.61,4.14,1.11,16.75,4.5,16.75,17,0,9.72-7.08,17.14-19.42,20.37A2,2,0,0,1,1289,125.12Zm22.33-72.34a1.89,1.89,0,0,1-1.18-.42,49.58,49.58,0,0,0-22.91-10.86,1.88,1.88,0,0,1,.63-3.7,53.39,53.39,0,0,1,24.65,11.64,1.88,1.88,0,0,1,.27,2.64A1.87,1.87,0,0,1,1311.28,52.78Zm6.39-9.81a1.88,1.88,0,0,1-1.22-.45,55.76,55.76,0,0,0-23.74-11.92,1.88,1.88,0,0,1,.85-3.66,59.63,59.63,0,0,1,25.33,12.73,1.87,1.87,0,0,1-1.22,3.3Z"/>
  </g>
  <line class="cls-2" y1="81.96" x2="1142.79" y2="81.96"/>
  <line class="cls-2" x1="1417.21" y1="81.96" x2="2560" y2="81.96"/>
</svg>
