<svg id="Layer_1" data-name="Layer 1" xmlns="http://www.w3.org/2000/svg" viewBox="0 0 535.15 261.45">
  <defs>
    <style>
      .cls-1 {
        fill: #0e2646;
      }
    </style>
  </defs>
  <g>
    <path class="cls-1" d="M20,243.52V17.93H45.41V243.52ZM43,41.12V17.93H96.43V41.12Zm0,202.4v-23.2H96.43v23.2Z"/>
    <path class="cls-1" d="M141,217.39V34.29h25.88V215.2Zm34.67,2.44q-8.79,0-17.34-.67T141,217.39l10-23.68a39.42,39.42,0,0,0,14.28,3.6q7.82.56,15.5.55,23.33,0,36.07-14t12.76-39.67q0-17.58-7.75-27.1t-22-9.52q-33,0-33,37.11l-7.57-33.2h10q1.83-25.89,31.74-25.88,25.88,0,40,15.26t14.16,43.33q0,36-20.82,55.85T175.66,219.83Z"/>
    <path class="cls-1" d="M288.08,217.39V34.29H314v183.1Zm79.59,0V133.16q0-12.31-6.1-19t-17.09-6.65q-30.53,0-30.52,37.11l-7.57-33.2h10q1.11-13.06,9.52-19.47t24.66-6.41q20.51,0,31.74,12.45t11.23,35.15v84.23Z"/>
    <path class="cls-1" d="M438.72,41.12V17.93h53.46V41.12Zm0,202.4v-23.2h53.46v23.2Zm51,0V17.93h25.39V243.52Z"/>
  </g>
</svg>
