<svg id="Layer_1" data-name="Layer 1" xmlns="http://www.w3.org/2000/svg" viewBox="0 0 1566.64 261.45">
  <defs>
    <style>
      .cls-1 {
        fill: #0e2646;
      }
    </style>
  </defs>
  <g>
    <path class="cls-1" d="M23.06,243.52V17.93h25.4V243.52ZM46,41.12V17.93H99.48V41.12Zm0,202.4v-23.2H99.48v23.2Z"/>
    <path class="cls-1" d="M144,217.39V34.29h25.88V215.2Zm34.66,2.44q-8.77,0-17.33-.67T144,217.39l10-23.68a39.42,39.42,0,0,0,14.28,3.6q7.81.56,15.5.55,23.31,0,36.07-14t12.76-39.67q0-17.58-7.75-27.1t-22-9.52q-33,0-33,37.11l-7.57-33.2h10q1.83-25.89,31.74-25.88,25.88,0,40,15.26t14.16,43.33q0,36-20.81,55.85T178.7,219.83Z"/>
    <path class="cls-1" d="M355.1,219.83q-33.09,0-51.09-17.39t-18-50q0-31.74,15.26-49.31t43.09-17.58q26.25,0,40.59,15.87t14.35,46.14q0,8.91-.74,16.6H307.73V144.4h68.12q0-17.46-8.3-26.8t-22.95-9.34q-16.49,0-25.58,11.23t-9.09,31.74q0,22.47,12.51,34.18T358,197.13a136.36,136.36,0,0,0,15.87-.92q7.8-.92,15.86-2.5l3.18,22.71a170,170,0,0,1-21,2.8Q362.42,219.83,355.1,219.83Z"/>
    <path class="cls-1" d="M437.62,217.39V88h23.43l2.44,27.34v102Zm79.59,0V133.16q0-11.72-6.11-18.06T494,108.75q-30.51,0-30.52,35.89l-7.56-33.2h10Q467,98.38,475.46,92t24.66-6.41q20.5,0,31.73,12.45t11.23,35.15v84.23Z"/>
    <path class="cls-1" d="M730.58,217.39V34.29h25.88v183.1Zm79.59,0V133.16q0-12.31-6.1-19T787,107.53q-30.51,0-30.52,37.11l-7.56-33.2h10Q760,98.38,768.43,92t24.65-6.41q20.52,0,31.74,12.45t11.23,35.15v84.23Z"/>
    <path class="cls-1" d="M910.76,219.83q-20.26,0-31.37-9.76t-11.11-27.59q0-20.5,15.32-31.49t43.27-11a137.48,137.48,0,0,1,20.69,1.4,74.61,74.61,0,0,1,16.18,4.22l-5.37,17.57a89,89,0,0,0-16-2.13q-7.82-.3-16-.31-33.71,0-33.7,20.51,0,8.55,5.8,13.18t16.42,4.64q12.09,0,20.2-4.15a29.77,29.77,0,0,0,12.15-10.62,24.88,24.88,0,0,0,4-13.3V156.85l7.57,33.2H948.6l4.15-3.91q0,11.24-5.19,18.74A31.08,31.08,0,0,1,933,216.11Q923.58,219.83,910.76,219.83Zm45.65-1.22-1.7-38.33-3.42-10.74V136.09q0-12.93-9.1-19t-27-6.53l-31-.85,2.44-23,26.12.36q32.12.49,47.67,13.86T976,140v54l22,2.68v20.75Z"/>
    <path class="cls-1" d="M1011.59,110.7V88h117.19v22.7Zm32.47,45.66V48.94h25.88V156.36Zm55.67,63.47q-29.43,0-42.55-12.2t-13.12-39.06v-22h25.88v20.75q0,15.39,7.51,22.34t24.72,7q6.09,0,12.94-.67t15.62-1.77l2.93,22.71q-8.55,1.46-16.66,2.19T1099.73,219.83Z"/>
    <path class="cls-1" d="M1235.22,219.83q-33.08,0-51.08-17.39t-18-50q0-31.74,17-49.31t48.65-17.58q18.92,0,32.4,7t19.23,19.83l-19.9,15a39.33,39.33,0,0,0-14-13.8,37.08,37.08,0,0,0-18.68-4.88q-18.32,0-28.44,11t-10.14,31.43q0,22.1,11.91,33.75t34,11.66q9,0,18.07-.85t17.58-2.32l2.93,22.7A141.22,141.22,0,0,1,1256,219.1Q1245.35,219.84,1235.22,219.83Z"/>
    <path class="cls-1" d="M1316.52,217.39V34.29h25.88v183.1Zm79.59,0V133.16q0-12.31-6.1-19t-17.09-6.65q-30.53,0-30.52,37.11l-7.57-33.2h10q1.1-13.06,9.52-19.47T1379,85.56q20.51,0,31.74,12.45T1422,133.16v84.23Z"/>
    <path class="cls-1" d="M1467.16,41.12V17.93h53.46V41.12Zm0,202.4v-23.2h53.46v23.2Zm51,0V17.93h25.39V243.52Z"/>
  </g>
</svg>
