<svg id="Layer_1" data-name="Layer 1" xmlns="http://www.w3.org/2000/svg" viewBox="0 0 100 100">
  <defs>
    <style>
      .cls-1 {
        fill: #0e2646;
      }
    </style>
  </defs>
  <g>
    <path class="cls-1" d="M50.05,15.57q21.57,0,43.16,0a6.3,6.3,0,0,1,6.25,3.81,1.5,1.5,0,0,1-.66,2.29q-16.87,11-33.68,22.16c-4.65,3.07-9.32,6.11-13.94,9.23a1.75,1.75,0,0,1-2.32,0Q25.08,37.3,1.24,21.64C.34,21,.07,20.52.55,19.49a6.23,6.23,0,0,1,6.17-3.93H50.05Z"/>
    <path class="cls-1" d="M49.87,84.44h-43c-3.2,0-5.32-1.43-6.38-4.09a1.25,1.25,0,0,1,.59-1.8Q19.83,66.7,38.6,54.88a2,2,0,0,1,1.75,0c2.52,1.56,5,3.21,7.45,4.89a3.57,3.57,0,0,0,4.47,0c2.4-1.65,4.88-3.2,7.28-4.85a1.62,1.62,0,0,1,2.08-.05q18.6,11.82,37.24,23.56a1.36,1.36,0,0,1,.65,2,6.18,6.18,0,0,1-6.16,3.94q-12.27,0-24.56,0Z"/>
    <path class="cls-1" d="M0,71.85V28.29L33.73,50.51Z"/>
    <path class="cls-1" d="M66.34,50.52,100,28.33V71.81Z"/>
  </g>
</svg>
