<svg width="22" height="22" viewBox="0 0 22 22" fill="none" xmlns="http://www.w3.org/2000/svg">
<path d="M6.36719 0C2.85587 0 0 2.86307 0 6.38324V15.6168C0 19.1369 2.85587 22 6.36719 22H15.6328C19.1441 22 22 19.1369 22 15.6168V6.38324C22 2.86307 19.1441 0 15.6328 0H6.36719ZM6.36719 1.89022H15.6328C18.1312 1.89022 20.1145 3.87859 20.1145 6.38324V15.6168C20.1145 18.1214 18.1312 20.1098 15.6328 20.1098H6.36719C3.86883 20.1098 1.88547 18.1214 1.88547 15.6168V6.38324C1.88547 3.87859 3.86883 1.89022 6.36719 1.89022ZM16.9054 3.78472C16.1776 3.78472 15.586 4.37781 15.586 5.10745C15.586 5.83708 16.1776 6.43018 16.9054 6.43018C17.6332 6.43018 18.2248 5.83708 18.2248 5.10745C18.2248 4.37781 17.6332 3.78472 16.9054 3.78472ZM10.9979 5.33786C7.88663 5.33786 5.34572 7.88518 5.34572 11.0043C5.34572 14.1234 7.88663 16.6707 10.9979 16.6707C14.1091 16.6707 16.65 14.1234 16.65 11.0043C16.65 7.88518 14.1091 5.33786 10.9979 5.33786ZM10.9979 7.22808C13.0876 7.22808 14.7646 8.90496 14.7646 11C14.7646 13.095 13.0876 14.7719 10.9979 14.7719C8.90811 14.7719 7.23544 13.095 7.23544 11C7.23544 8.90496 8.90811 7.22808 10.9979 7.22808Z" fill="#69696F"/>
</svg>
