<svg id="Layer_1" data-name="Layer 1" xmlns="http://www.w3.org/2000/svg" viewBox="0 0 100 100">
  <defs>
    <style>
      .cls-1 {
        fill: #0e2646;
      }
    </style>
  </defs>
  <g>
    <path class="cls-1" d="M49.86,95.2H29.38c-12.24,0-21.66-7.59-24.19-19.53a21.67,21.67,0,0,1-.37-4.49q0-21.18,0-42.36A23.83,23.83,0,0,1,24.46,5.16,24.17,24.17,0,0,1,29,4.82q21,0,42.09,0A23.84,23.84,0,0,1,94.84,24.46a25.06,25.06,0,0,1,.35,4.5q0,21,0,42.08a23.86,23.86,0,0,1-19.66,23.8,25.63,25.63,0,0,1-4.64.35C63.89,95.22,56.87,95.2,49.86,95.2Zm.24-74.56H37.25c-9.59,0-16.59,7-16.61,16.55q0,12.86,0,25.7a16.07,16.07,0,0,0,16.4,16.47c8.66,0,17.33,0,26,0a17.31,17.31,0,0,0,4.85-.72A15.83,15.83,0,0,0,79.35,63.23c0-8.61,0-17.23,0-25.84,0-9.79-6.94-16.73-16.69-16.75Z"/>
    <path class="cls-1" d="M26,50c0-4.37,0-8.75,0-13.13A10.58,10.58,0,0,1,36.87,26Q50,26,63.13,26A10.56,10.56,0,0,1,74,36.87Q74,50,74,63.13A10.57,10.57,0,0,1,63.14,74Q50,74,36.87,74A10.58,10.58,0,0,1,26,63.14C26,58.76,26,54.38,26,50ZM50.07,36.73A13.27,13.27,0,1,0,63.27,50,13.4,13.4,0,0,0,50.07,36.73Zm15.18-4.52a2.69,2.69,0,0,0-2.74,2.61,2.86,2.86,0,0,0,2.6,2.67,2.68,2.68,0,0,0,2.68-2.67A2.53,2.53,0,0,0,65.25,32.21Z"/>
    <path class="cls-1" d="M50,57.91a7.91,7.91,0,1,1,7.95-7.8A7.82,7.82,0,0,1,50,57.91Z"/>
  </g>
</svg>
