<svg id="Layer_1" data-name="Layer 1" xmlns="http://www.w3.org/2000/svg" viewBox="0 0 100 100">
  <defs>
    <style>
      .cls-1 {
        fill: #0e2646;
      }
    </style>
  </defs>
  <path class="cls-1" d="M8,50C8,40,8,29.91,8,19.87A11.49,11.49,0,0,1,19.59,8Q50,8,80.39,8A11.36,11.36,0,0,1,92,19.59q.08,30.41,0,60.8A11.36,11.36,0,0,1,80.4,92q-30.4.08-60.8,0C12.88,92,8,86.91,8,80.13,8,70.09,8,60.05,8,50Zm45-5.85c0-.16,0-.64,0-1.11-.08-1.41-.71-2.14-2.11-2.17-2.45-.07-4.91-.07-7.36,0a1.81,1.81,0,0,0-2,2.07q0,15.74,0,31.45c0,1.46.62,2,2.11,2,2.15,0,4.3,0,6.45,0,2.43,0,2.91-.47,2.91-2.91,0-5.13-.11-10.27.06-15.39a13.77,13.77,0,0,1,1.34-5.25c1.13-2.38,3.43-2.85,5.85-2.49a4.53,4.53,0,0,1,3.87,3.81,24.87,24.87,0,0,1,.48,5c0,5,0,9.91,0,14.86,0,1.92.57,2.42,2.45,2.42q3.36,0,6.71,0c2.14,0,2.65-.48,2.65-2.61,0-5.61.1-11.23,0-16.84a40,40,0,0,0-1-7.78,10.38,10.38,0,0,0-6.4-7.82,15.23,15.23,0,0,0-10.68-.27C56.31,41.76,54.66,43.14,53,44.15ZM25.39,58.59V73.32c0,2.85.25,3.1,3,3.1,1.84,0,3.68,0,5.53,0,2.3,0,2.83-.52,2.85-2.87,0-2.55,0-5.09,0-7.63q0-11.12,0-22.23c0-2.18-.67-2.84-2.83-2.87s-4.12,0-6.18,0c-1.86.05-2.4.65-2.41,2.51Zm5.63-35a7.32,7.32,0,0,0-7.36,7.21,7.38,7.38,0,1,0,14.76.09A7.33,7.33,0,0,0,31,23.57Z"/>
</svg>
