<svg width="128" height="128" viewBox="0 0 128 128" fill="none" xmlns="http://www.w3.org/2000/svg">
<circle cx="64.5" cy="63.5" r="63.5" fill="#0B2D41"/>
<g clip-path="url(#clip0_74_32)">
<path d="M38.0539 87.7668C38.8365 88.935 39.8278 89.8061 41.2365 90.1033C43.3235 90.5439 45.2956 90.1955 47.0487 89.0067C47.8417 88.4739 48.5722 87.8078 49.24 87.1314C51.0974 85.2561 53.1843 83.7291 55.7722 82.9708C57.7965 82.3764 59.8 82.3149 61.7408 83.309C62.6695 83.7906 63.3687 84.508 63.9113 85.3688C63.9635 85.3585 64.0156 85.3688 64.0261 85.3483C65.5495 83.022 67.8035 82.3149 70.4539 82.6326C73.4069 82.981 75.8069 84.4567 77.9461 86.4038C78.9269 87.2954 79.8452 88.2792 80.9304 89.017C82.8608 90.3287 85.0313 90.6464 87.3061 89.9188C88.2765 89.6011 89.0069 88.9453 89.6017 88.1357C89.6956 88.0025 89.7895 87.8692 89.9669 87.6335C89.6017 89.4474 88.8295 90.9128 87.6609 92.1631C85.3235 94.684 82.36 96.1085 78.9895 96.7028C74.8365 97.4304 70.8713 96.7746 67.1669 94.766C65.8208 94.0384 64.6835 93.0546 63.9948 91.5789C63.8069 91.8864 63.6608 92.1733 63.4835 92.4295C62.4713 93.8744 61.0313 94.7762 59.4452 95.4526C56.3982 96.7541 53.1948 97.287 49.9078 96.8565C45.9635 96.3339 42.4991 94.7762 39.9009 91.6917C38.9409 90.5542 38.3148 89.2424 38.0643 87.7668H38.0539Z" fill="#F6DCAC"/>
<path d="M86.5652 49.7474C86.5652 53.0779 86.5235 56.4187 86.5861 59.7492C86.607 60.774 86.2 61.0917 84.9583 61.3171C71.1844 63.8381 57.4313 63.7151 43.6574 61.2147C42.0609 60.9277 41.3826 60.5588 41.4139 59.0626C41.5287 53.1292 41.4557 47.1854 41.4661 41.2417C41.4765 34.2527 46.6105 29.9999 55.0522 29.9999C61.2505 29.9999 67.4592 29.9897 73.6574 29.9999C81.1913 30.0204 86.4922 34.4065 86.5548 40.6884C86.5861 43.7012 86.5548 46.7243 86.5548 49.7371L86.5652 49.7474Z" fill="#F6DCAC"/>
<path d="M63.953 71.6777C53.9252 71.6572 44.0226 70.5812 34.2661 68.3369C31.8765 67.7835 30.6765 66.3181 31.0835 64.4223C31.48 62.5879 33.2643 61.6554 35.633 62.1575C46.3496 64.4735 57.1809 65.5188 68.1478 65.1703C76.4017 64.9039 84.5409 63.8586 92.5965 62.1165C94.7252 61.6554 96.4678 62.5162 96.8956 64.2583C97.3861 66.2566 96.28 67.7938 93.9739 68.3267C84.1026 70.6017 74.0956 71.6879 63.953 71.6777Z" fill="#F6DCAC"/>
</g>
<defs>
<clipPath id="clip0_74_32">
<rect width="66" height="67" fill="white" transform="translate(31 30)"/>
</clipPath>
</defs>
</svg>
