<svg width="128" height="128" viewBox="0 0 128 128" fill="none" xmlns="http://www.w3.org/2000/svg">
<circle cx="64.5" cy="63.5" r="63.5" fill="#EAE9E7"/>
<path fill-rule="evenodd" clip-rule="evenodd" d="M92.6235 33.6532C94.8946 34.9993 95.6741 37.9831 94.3646 40.3177L73.6712 77.2107C72.9356 78.5221 71.6495 79.4083 70.1899 79.6095C68.7303 79.8107 67.2625 79.3041 66.2168 78.2382L56.1174 67.9433L43.8941 90.4946C42.6181 92.8487 39.7272 93.6938 37.4372 92.3821C35.1471 91.0704 34.3251 88.0987 35.6011 85.7446L50.87 57.5744C51.5928 56.2409 52.8809 55.332 54.3511 55.1181C55.8214 54.9041 57.3043 55.4097 58.3588 56.4845L68.5253 66.8478L86.1404 35.443C87.4499 33.1084 90.3525 32.3071 92.6235 33.6532Z" fill="#0F6EA9"/>
</svg>
