<svg width="128" height="128" viewBox="0 0 128 128" fill="none" xmlns="http://www.w3.org/2000/svg">
<circle cx="64.5" cy="63.5" r="63.5" fill="#0B2D41"/>
<g clip-path="url(#clip0_74_32)">
<path d="M41.3058 85.7314C42.0054 86.7776 42.8916 87.5576 44.1508 87.8238C46.0165 88.2184 47.7795 87.9064 49.3466 86.8418C50.0555 86.3646 50.7085 85.7681 51.3055 85.1624C52.9659 83.483 54.8315 82.1156 57.1448 81.4365C58.9545 80.9042 60.7455 80.8492 62.4805 81.7393C63.3107 82.1707 63.9357 82.8131 64.4207 83.5839C64.4674 83.5748 64.514 83.5839 64.5233 83.5656C65.8852 81.4824 67.9001 80.8492 70.2694 81.1337C72.9093 81.4457 75.0547 82.7672 76.967 84.5108C77.8438 85.3092 78.6647 86.1902 79.6348 86.851C81.3605 88.0257 83.3007 88.3102 85.3342 87.6586C86.2018 87.3741 86.8547 86.7868 87.3864 86.0618C87.4704 85.9425 87.5543 85.8232 87.7129 85.6121C87.3864 87.2364 86.6961 88.5488 85.6514 89.6684C83.5619 91.9259 80.9127 93.2016 77.8998 93.7338C74.1872 94.3854 70.6425 93.7981 67.3311 91.9994C66.1278 91.3478 65.111 90.4668 64.4954 89.1453C64.3274 89.4206 64.1969 89.6776 64.0383 89.907C63.1335 91.201 61.8462 92.0085 60.4283 92.6142C57.7045 93.7797 54.8408 94.2569 51.9025 93.8715C48.3765 93.4035 45.2795 92.0085 42.9569 89.2462C42.0987 88.2276 41.539 87.0529 41.3151 85.7314H41.3058Z" fill="#F6DCAC"/>
<path d="M84.6719 51.6842C84.6719 54.6668 84.6346 57.6585 84.6906 60.6411C84.7092 61.5588 84.3454 61.8433 83.2354 62.0452C70.9224 64.3028 58.628 64.1926 46.3149 61.9534C44.8877 61.6965 44.2814 61.3661 44.3094 60.0262C44.412 54.7127 44.3467 49.39 44.356 44.0672C44.3654 37.8084 48.9548 33.9999 56.5012 33.9999C62.042 33.9999 67.5922 33.9908 73.1331 33.9999C79.868 34.0183 84.6066 37.9461 84.6626 43.5717C84.6906 46.2697 84.6626 48.977 84.6626 51.6751L84.6719 51.6842Z" fill="#F6DCAC"/>
<path d="M64.458 71.3234C55.4938 71.305 46.6414 70.3414 37.9197 68.3316C35.7836 67.8361 34.7108 66.5237 35.0746 64.826C35.4291 63.1833 37.0242 62.3481 39.1417 62.7978C48.7216 64.8719 58.4041 65.8079 68.2079 65.4959C75.5864 65.2573 82.8623 64.3212 90.0636 62.7611C91.9665 62.3481 93.5243 63.119 93.9067 64.6791C94.3451 66.4687 93.3564 67.8452 91.2949 68.3224C82.4705 70.3598 73.5249 71.3325 64.458 71.3234Z" fill="#F6DCAC"/>
</g>
<defs>
<clipPath id="clip0_74_32">
<rect width="59" height="60" fill="white" transform="translate(35 34)"/>
</clipPath>
</defs>
</svg>
