<svg width="128" height="128" viewBox="0 0 128 128" fill="none" xmlns="http://www.w3.org/2000/svg">
<circle cx="64.5" cy="63.5" r="63.5" fill="#0B2D41"/>
<g clip-path="url(#clip0_87_2)">
<path d="M40.6522 88.6891C41.3618 89.7343 42.2487 90.5234 43.5114 90.7898C45.3896 91.1895 47.1635 90.8718 48.7392 89.8061C49.4487 89.3244 50.1061 88.73 50.7114 88.1152C52.3809 86.4243 54.2592 85.0511 56.5861 84.3747C58.4018 83.8419 60.2174 83.7804 61.96 84.6719C62.7948 85.1023 63.4314 85.7479 63.9114 86.5268C63.9635 86.5268 64.0053 86.5268 64.0157 86.5063C65.3827 84.4157 67.407 83.7804 69.7966 84.0571C72.4574 84.3747 74.607 85.6967 76.5374 87.4491C77.414 88.2484 78.2383 89.1297 79.2192 89.7958C80.9618 90.9846 82.9131 91.2612 84.9479 90.6054C85.8244 90.3287 86.4714 89.7241 87.014 88.9965C87.0974 88.8838 87.1809 88.7608 87.3374 88.5353C87.014 90.175 86.3148 91.4867 85.2609 92.614C83.1531 94.8787 80.4922 96.1597 77.4661 96.6926C73.7305 97.3484 70.1618 96.7643 66.8331 94.9505C65.6227 94.2946 64.6 93.403 63.9844 92.0811C63.8174 92.3578 63.6818 92.614 63.5253 92.8394C62.6174 94.1409 61.3235 94.9504 59.894 95.5653C57.1496 96.7336 54.2696 97.2152 51.3166 96.8258C47.7687 96.3544 44.6487 94.9504 42.3114 92.1733C41.4453 91.1485 40.8818 89.97 40.6522 88.6481V88.6891Z" fill="#F6DCAC"/>
<path d="M86.5652 49.7475C86.5652 53.078 86.5234 56.4188 86.586 59.7494C86.6069 60.7741 86.2 61.0918 84.9582 61.3173C71.1843 63.8382 57.4313 63.7152 43.6574 61.2148C42.0608 60.9278 41.3826 60.5589 41.4139 59.0627C41.5287 53.1293 41.4556 47.1856 41.466 41.2419C41.4765 34.2529 46.6104 30 55.0521 30C61.2504 30 67.4591 29.9898 73.6574 30C81.1913 30.0205 86.4921 34.4066 86.5547 40.6885C86.586 43.7013 86.5547 46.7244 86.5547 49.7373L86.5652 49.7475Z" fill="#F6DCAC"/>
<path d="M63.9531 71.6777C53.9253 71.6572 44.0227 70.5812 34.2661 68.3369C31.8766 67.7835 30.6766 66.3181 31.0835 64.4223C31.4801 62.5879 33.2644 61.6554 35.6331 62.1575C46.3496 64.4735 57.1809 65.5188 68.1479 65.1703C76.4018 64.9039 84.5409 63.8586 92.5966 62.1165C94.7253 61.6554 96.4679 62.5162 96.8957 64.2583C97.3861 66.2566 96.2801 67.7938 93.974 68.3267C84.1027 70.6017 74.0957 71.6879 63.9531 71.6777Z" fill="#F6DCAC"/>
</g>
<defs>
<clipPath id="clip0_87_2">
<rect width="66" height="67" fill="white" transform="translate(31 30)"/>
</clipPath>
</defs>
</svg>
