<svg width="128" height="128" viewBox="0 0 128 128" fill="none" xmlns="http://www.w3.org/2000/svg">
<circle cx="64.5" cy="63.5" r="63.5" fill="#F3F3F3"/>
<path fill-rule="evenodd" clip-rule="evenodd" d="M91.6235 34.6532C93.8946 35.9993 94.6741 38.9831 93.3646 41.3177L72.6712 78.2107C71.9356 79.5221 70.6495 80.4083 69.1899 80.6095C67.7303 80.8107 66.2625 80.3041 65.2168 79.2382L55.1174 68.9433L42.8941 91.4946C41.6181 93.8487 38.7272 94.6938 36.4372 93.3821C34.1471 92.0704 33.3251 89.0987 34.6011 86.7446L49.87 58.5744C50.5928 57.2409 51.8809 56.332 53.3511 56.1181C54.8214 55.9041 56.3043 56.4097 57.3588 57.4845L67.5253 67.8478L85.1404 36.443C86.4499 34.1084 89.3525 33.3071 91.6235 34.6532Z" fill="#0F6EA9"/>
</svg>
