<svg width="128" height="128" viewBox="0 0 128 128" fill="none" xmlns="http://www.w3.org/2000/svg">
<circle cx="64.5" cy="63.5" r="63.5" fill="#0B2D41"/>
<g clip-path="url(#clip0_119_26)">
<path d="M85.8814 49.5294C85.8814 52.8232 85.8409 56.127 85.9016 59.4208C85.9219 60.4343 85.5272 60.7484 84.3231 60.9714C70.9666 63.4645 57.6303 63.3429 44.2738 60.8701C42.7256 60.5863 42.0679 60.2214 42.0983 58.7418C42.2096 52.8738 42.1388 46.9958 42.1489 41.1177C42.159 34.2059 47.1373 30 55.3233 30C61.3337 30 67.3543 29.9899 73.3647 30C80.6703 30.0203 85.8106 34.3579 85.8713 40.5704C85.9016 43.55 85.8713 46.5397 85.8713 49.5193L85.8814 49.5294Z" fill="#F6DCAC"/>
<path d="M63.9544 71.2175C54.2305 71.1972 44.628 70.1331 35.1671 67.9136C32.8499 67.3663 31.6863 65.9171 32.0809 64.0422C32.4654 62.2281 34.1957 61.3058 36.4926 61.8024C46.8844 64.0928 57.3875 65.1266 68.0221 64.782C76.0259 64.5185 83.9184 63.4848 91.7299 61.7619C93.7941 61.3058 95.4839 62.1571 95.8988 63.88C96.3744 65.8563 95.3018 67.3765 93.0656 67.9035C83.4934 70.1533 73.7897 71.2276 63.9544 71.2175Z" fill="#F6DCAC"/>
<path d="M83.0482 89.6322C82.6536 89.2775 82.087 89.1559 81.6013 89.3991C80.0531 90.1794 78.5657 89.997 77.0783 89.2369C75.7021 88.5376 74.579 87.5749 73.4356 86.6121C70.7845 84.3622 67.5567 84.0987 64.6021 85.8925C64.1467 86.1763 63.8128 86.156 63.3676 85.8824C61.7891 84.9196 60.0588 84.4939 58.1667 84.8284C56.5274 85.1223 55.2424 85.9634 54.0889 87.0073C53.0365 87.96 51.8931 88.791 50.5676 89.4092C49.2117 90.0274 47.8659 90.0984 46.5101 89.4498C46.3482 89.3687 46.1559 89.3079 45.9738 89.2977C44.9417 89.2268 44.284 90.1389 44.7393 91.051C45.741 93.0475 47.3297 94.5373 49.4343 95.6015C54.0585 97.9324 60.5344 97.3142 63.5902 93.8076C63.8432 93.5137 64.167 93.534 64.4402 93.8279C66.5853 96.0677 69.3983 96.919 72.3529 97.0102C75.3885 96.9696 77.9282 96.2298 80.1442 94.6691C81.5305 93.686 82.5929 92.4597 83.3012 91.0004C83.544 90.4936 83.4429 90.0072 83.0482 89.6524V89.6322Z" fill="#F6DCAC"/>
</g>
<defs>
<clipPath id="clip0_119_26">
<rect width="64" height="67" fill="white" transform="translate(32 30)"/>
</clipPath>
</defs>
</svg>
