<svg width="84" height="84" viewBox="0 0 84 84" fill="none" xmlns="http://www.w3.org/2000/svg">
<mask id="mask0_17_3" style="mask-type:luminance" maskUnits="userSpaceOnUse" x="3" y="2" width="78" height="81">
<path d="M80.1909 62.0991L73.1961 49.7554C73.1069 49.5972 73.0607 49.4184 73.062 49.2369C73.0632 49.0553 73.112 48.8772 73.2034 48.7202C73.2947 48.5633 73.4256 48.4331 73.5829 48.3423C73.7402 48.2516 73.9184 48.2036 74.1 48.2031H74.6237C74.8066 48.2027 74.9862 48.1542 75.1443 48.0623C75.3025 47.9705 75.4337 47.8386 75.5247 47.68C75.6157 47.5214 75.6633 47.3416 75.6627 47.1587C75.6622 46.9758 75.6134 46.7963 75.5214 46.6383L70.1475 37.4054C70.0555 37.2473 70.0068 37.0678 70.0063 36.8849C70.0057 36.702 70.0533 36.5222 70.1443 36.3636C70.2353 36.205 70.3665 36.0731 70.5247 35.9813C70.6828 35.8895 70.8624 35.8409 71.0453 35.8406H71.0889C71.2726 35.8445 71.454 35.7997 71.6148 35.7108C71.7756 35.6219 71.91 35.492 72.0044 35.3343C72.0987 35.1766 72.1496 34.9968 72.152 34.8131C72.1544 34.6294 72.1081 34.4483 72.0178 34.2883L62.6665 17.2189C62.5759 17.0581 62.4441 16.9242 62.2847 16.8311C62.1253 16.7379 61.944 16.6888 61.7594 16.6888C61.5748 16.6888 61.3935 16.7379 61.2341 16.8311C61.0747 16.9242 60.9429 17.0581 60.8523 17.2189L56.4883 24.8621C56.3982 25.0245 56.2663 25.1597 56.1062 25.2539C55.9462 25.3481 55.7639 25.3978 55.5782 25.3978C55.3925 25.3978 55.2101 25.3481 55.0501 25.2539C54.89 25.1597 54.7581 25.0245 54.6679 24.8621L42.9663 3.37894C42.8748 3.21823 42.7424 3.08461 42.5825 2.99166C42.4227 2.89871 42.241 2.84977 42.0561 2.84977C41.8712 2.84977 41.6895 2.89871 41.5297 2.99166C41.3698 3.08461 41.2374 3.21823 41.1459 3.37894L29.3009 23.9893C29.2103 24.1502 29.0785 24.284 28.9191 24.3772C28.7597 24.4703 28.5784 24.5194 28.3938 24.5194C28.2092 24.5194 28.0279 24.4703 27.8685 24.3772C27.7091 24.284 27.5773 24.1502 27.4867 23.9893L23.3908 16.3648C23.3002 16.204 23.1685 16.0702 23.0091 15.977C22.8497 15.8838 22.6684 15.8347 22.4837 15.8347C22.2991 15.8347 22.1178 15.8838 21.9584 15.977C21.799 16.0702 21.6673 16.204 21.5767 16.3648L11.7702 33.4529C11.6811 33.611 11.6348 33.7898 11.6361 33.9714C11.6374 34.153 11.6861 34.3311 11.7775 34.488C11.8689 34.6449 11.9997 34.7752 12.157 34.8659C12.3143 34.9567 12.4926 35.0047 12.6742 35.0052C12.8571 35.0056 13.0366 35.0541 13.1948 35.1459C13.353 35.2377 13.4841 35.3696 13.5752 35.5282C13.6662 35.6868 13.7138 35.8667 13.7132 36.0495C13.7126 36.2324 13.6639 36.4119 13.5719 36.57L8.18554 45.8029C8.09355 45.9609 8.04483 46.1404 8.04426 46.3233C8.04369 46.5062 8.0913 46.686 8.18231 46.8446C8.27332 47.0033 8.40451 47.1351 8.56267 47.2269C8.72084 47.3188 8.90039 47.3673 9.08327 47.3677H9.60695C9.78906 47.3671 9.96814 47.4143 10.1263 47.5046C10.2845 47.5949 10.4162 47.7251 10.5083 47.8822C10.6004 48.0393 10.6497 48.2178 10.6513 48.3999C10.6528 48.582 10.6066 48.7613 10.5171 48.92L3.5161 61.2638C3.42694 61.422 3.38071 61.6007 3.38198 61.7823C3.38326 61.9639 3.432 62.142 3.52338 62.2989C3.61476 62.4558 3.74559 62.5861 3.90289 62.6768C4.06019 62.7676 4.23849 62.8156 4.42007 62.8161H16.3337C16.5153 62.8166 16.6936 62.8646 16.8509 62.9554C17.0082 63.0461 17.139 63.1764 17.2304 63.3333C17.3217 63.4902 17.3705 63.6683 17.3718 63.8499C17.373 64.0315 17.3268 64.2102 17.2376 64.3684L14.2203 69.6987C14.1311 69.8568 14.0849 70.0356 14.0862 70.2172C14.0874 70.3988 14.1362 70.5769 14.2276 70.7338C14.3189 70.8907 14.4498 71.021 14.6071 71.1118C14.7644 71.2025 14.9427 71.2505 15.1242 71.251H35.1798C35.4559 71.251 35.7207 71.3607 35.9159 71.5559C36.1112 71.7512 36.2209 72.016 36.2209 72.2921V81.1135C36.2209 81.388 36.3299 81.6513 36.524 81.8453C36.7181 82.0394 36.9813 82.1484 37.2558 82.1484H46.5634C46.6999 82.1493 46.8351 82.1231 46.9614 82.0715C47.0877 82.0198 47.2025 81.9437 47.2993 81.8475C47.396 81.7514 47.4728 81.637 47.5252 81.511C47.5776 81.385 47.6046 81.25 47.6046 81.1135V72.2734C47.6046 71.9973 47.7143 71.7325 47.9095 71.5372C48.1048 71.342 48.3696 71.2323 48.6457 71.2323H68.1713C68.3529 71.2318 68.5312 71.1838 68.6885 71.093C68.8458 71.0023 68.9766 70.872 69.068 70.7151C69.1594 70.5582 69.2081 70.3801 69.2094 70.1985C69.2107 70.0169 69.1644 69.8382 69.0752 69.68L66.5379 65.2038C66.4488 65.0456 66.4025 64.8668 66.4038 64.6853C66.4051 64.5037 66.4538 64.3256 66.5452 64.1687C66.6366 64.0118 66.7674 63.8815 66.9247 63.7907C67.082 63.7 67.2603 63.652 67.4419 63.6515H79.2869C79.4685 63.6509 79.6468 63.603 79.8041 63.5122C79.9614 63.4215 80.0922 63.2912 80.1836 63.1343C80.275 62.9774 80.3237 62.7993 80.325 62.6177C80.3263 62.4361 80.28 62.2573 80.1909 62.0991ZM52.9411 31.009L52.885 31.115L52.8226 31.009H52.9411Z" fill="white"/>
</mask>
<g mask="url(#mask0_17_3)">
<path d="M84 0H0V84H84V0Z" fill="#26510C"/>
</g>
</svg>
