<svg width="128" height="128" viewBox="0 0 128 128" fill="none" xmlns="http://www.w3.org/2000/svg">
<circle cx="64.5" cy="63.5" r="63.5" fill="#26510C"/>
<mask id="mask0_68_10" style="mask-type:luminance" maskUnits="userSpaceOnUse" x="31" y="30" width="66" height="68">
<path d="M96.7803 80.4886L90.8681 70.0551C90.7927 69.9214 90.7536 69.7703 90.7547 69.6169C90.7558 69.4634 90.797 69.3128 90.8742 69.1802C90.9515 69.0476 91.0621 68.9375 91.195 68.8608C91.328 68.7841 91.4787 68.7435 91.6321 68.7431H92.0748C92.2293 68.7427 92.3811 68.7017 92.5148 68.6241C92.6485 68.5465 92.7594 68.435 92.8363 68.301C92.9132 68.1669 92.9535 68.0149 92.953 67.8603C92.9525 67.7058 92.9113 67.554 92.8336 67.4204L88.2913 59.6164C88.2136 59.4828 88.1724 59.3311 88.1719 59.1765C88.1714 59.022 88.2117 58.87 88.2886 58.7359C88.3655 58.6018 88.4764 58.4904 88.6101 58.4128C88.7438 58.3351 88.8956 58.2941 89.0501 58.2938H89.087C89.2423 58.2971 89.3956 58.2593 89.5315 58.1841C89.6674 58.109 89.781 57.9992 89.8608 57.8659C89.9405 57.7326 89.9836 57.5806 89.9856 57.4253C89.9876 57.2701 89.9484 57.117 89.8722 56.9817L81.968 42.5541C81.8915 42.4181 81.7801 42.305 81.6454 42.2263C81.5106 42.1475 81.3574 42.106 81.2013 42.106C81.0453 42.106 80.8921 42.1475 80.7573 42.2263C80.6226 42.305 80.5112 42.4181 80.4346 42.5541L76.7461 49.0144C76.6699 49.1516 76.5583 49.266 76.4231 49.3456C76.2878 49.4252 76.1337 49.4672 75.9767 49.4672C75.8198 49.4672 75.6657 49.4252 75.5304 49.3456C75.3951 49.266 75.2836 49.1516 75.2074 49.0144L65.3167 30.856C65.2394 30.7202 65.1275 30.6072 64.9923 30.5287C64.8572 30.4501 64.7037 30.4087 64.5474 30.4087C64.3911 30.4087 64.2376 30.4501 64.1024 30.5287C63.9673 30.6072 63.8554 30.7202 63.7781 30.856L53.7662 48.2767C53.6896 48.4126 53.5782 48.5258 53.4435 48.6045C53.3088 48.6833 53.1555 48.7247 52.9995 48.7247C52.8434 48.7247 52.6902 48.6833 52.5555 48.6045C52.4207 48.5258 52.3094 48.4126 52.2328 48.2767L48.7708 41.8322C48.6942 41.6962 48.5828 41.5831 48.4481 41.5044C48.3134 41.4256 48.1601 41.3841 48.0041 41.3841C47.848 41.3841 47.6948 41.4256 47.5601 41.5044C47.4253 41.5831 47.314 41.6962 47.2374 41.8322L38.9486 56.2756C38.8732 56.4093 38.8342 56.5604 38.8352 56.7139C38.8363 56.8674 38.8775 57.0179 38.9548 57.1506C39.032 57.2832 39.1426 57.3933 39.2755 57.47C39.4085 57.5467 39.5592 57.5873 39.7127 57.5877C39.8672 57.588 40.019 57.6291 40.1527 57.7067C40.2864 57.7843 40.3973 57.8957 40.4742 58.0298C40.5511 58.1639 40.5914 58.3159 40.5909 58.4705C40.5904 58.625 40.5492 58.7767 40.4715 58.9103L35.9187 66.7143C35.8409 66.8479 35.7998 66.9997 35.7993 67.1542C35.7988 67.3088 35.839 67.4608 35.916 67.5949C35.9929 67.729 36.1038 67.8404 36.2375 67.918C36.3711 67.9956 36.5229 68.0366 36.6775 68.0369H37.1201C37.274 68.0365 37.4254 68.0764 37.5591 68.1527C37.6928 68.229 37.8041 68.3391 37.882 68.4718C37.9598 68.6046 38.0015 68.7555 38.0028 68.9094C38.0041 69.0634 37.965 69.2149 37.8895 69.349L31.9719 79.7825C31.8965 79.9162 31.8575 80.0673 31.8585 80.2207C31.8596 80.3742 31.9008 80.5248 31.9781 80.6574C32.0553 80.79 32.1659 80.9002 32.2988 80.9768C32.4318 81.0535 32.5825 81.0941 32.736 81.0946H42.8058C42.9593 81.095 43.11 81.1356 43.243 81.2123C43.3759 81.289 43.4865 81.3991 43.5637 81.5317C43.641 81.6643 43.6822 81.8149 43.6832 81.9684C43.6843 82.1218 43.6452 82.2729 43.5699 82.4066L41.0195 86.912C40.9441 87.0457 40.905 87.1968 40.9061 87.3503C40.9072 87.5038 40.9484 87.6543 41.0256 87.7869C41.1029 87.9195 41.2135 88.0297 41.3464 88.1064C41.4794 88.183 41.6301 88.2236 41.7835 88.224H58.7352C58.9686 88.224 59.1924 88.3168 59.3575 88.4818C59.5225 88.6468 59.6152 88.8707 59.6152 89.1041V96.5603C59.6152 96.7922 59.7074 97.0147 59.8714 97.1788C60.0355 97.3428 60.258 97.435 60.4899 97.435H68.3572C68.4725 97.4357 68.5868 97.4136 68.6935 97.3699C68.8003 97.3263 68.8973 97.262 68.9791 97.1807C69.0609 97.0994 69.1258 97.0027 69.1701 96.8962C69.2144 96.7897 69.2372 96.6756 69.2372 96.5603V89.0882C69.2372 88.8548 69.3299 88.631 69.4949 88.466C69.6599 88.301 69.8838 88.2083 70.1171 88.2083H86.6209C86.7744 88.2078 86.9251 88.1672 87.0581 88.0905C87.191 88.0139 87.3016 87.9037 87.3788 87.7711C87.4561 87.6385 87.4973 87.4879 87.4984 87.3344C87.4994 87.181 87.4604 87.0299 87.385 86.8962L85.2404 83.1127C85.165 82.979 85.1259 82.8279 85.127 82.6744C85.1281 82.521 85.1693 82.3704 85.2465 82.2378C85.3237 82.1052 85.4343 81.995 85.5673 81.9183C85.7002 81.8417 85.8509 81.8011 86.0044 81.8006H96.0163C96.1698 81.8002 96.3205 81.7596 96.4534 81.683C96.5864 81.6063 96.697 81.4961 96.7742 81.3635C96.8514 81.2309 96.8926 81.0803 96.8937 80.9269C96.8948 80.7734 96.8557 80.6223 96.7803 80.4886ZM73.7478 54.21L73.7003 54.2996L73.6477 54.21H73.7478Z" fill="white"/>
</mask>
<g mask="url(#mask0_68_10)">
<path d="M100 28H29V99H100V28Z" fill="#FEFEFD"/>
</g>
</svg>
