<svg id="Layer_1" data-name="Layer 1" xmlns="http://www.w3.org/2000/svg" viewBox="0 0 100 100">
  <defs>
    <style>
      .cls-1 {
        fill: #0e2646;
      }
    </style>
  </defs>
  <path class="cls-1" d="M0,82.16c10.83.5,20.64-2.13,29.65-8.9-9.52-.94-15.75-5.7-19.23-14.49h8.74C8.8,54.59,2.75,46.86,3.36,38.05c2.76,1.1,5.46,2.33,8.89,2.21C7.83,36.83,5,32.76,3.91,27.57A20.46,20.46,0,0,1,6.24,12.85C17.42,26,31.43,33.23,48.8,34.43c-.14-1-.3-1.76-.36-2.56A20.74,20.74,0,0,1,71.7,9.21a20.35,20.35,0,0,1,11.58,5.51,1.81,1.81,0,0,0,2.07.56c3.88-1.38,7.78-2.72,11.52-4-.25,2.45-2.15,5-8.26,10.74,2.16-.47,4-.79,5.73-1.27s3.48-1.13,5.66-1.84a38.6,38.6,0,0,1-2.74,3.52q-3.14,3.2-6.47,6.19a2.73,2.73,0,0,0-1,2.26c-.25,22-9.24,39.42-27.73,51.6a52.76,52.76,0,0,1-22.65,8,58.91,58.91,0,0,1-38.31-7.6C.7,82.62.35,82.38,0,82.16Z"/>
</svg>
