<svg id="Layer_1" data-name="Layer 1" xmlns="http://www.w3.org/2000/svg" viewBox="0 0 100 100">
  <defs>
    <style>
      .cls-1 {
        fill: #0e2646;
      }
    </style>
  </defs>
  <path class="cls-1" d="M3.1,7.37c.5,0,.72-.08.94-.08,9.18,0,18.37,0,27.55,0a2.54,2.54,0,0,1,1.7,1q10.55,13.86,21,27.77c.21.28.45.53.77.9,1.8-1.95,3.53-3.82,5.25-5.7Q71,19.64,81.72,8a2,2,0,0,1,1.2-.7c3.41-.05,6.83,0,10.68,0L60.12,43.81,96.9,92.69H95.17c-8.73,0-17.47,0-26.2,0a2.84,2.84,0,0,1-2.57-1.28Q55.6,77,44.72,62.65c-.24-.32-.5-.62-.83-1L36.2,70q-10,10.9-20,21.8a2.53,2.53,0,0,1-1.54.84c-3.2.07-6.4,0-9.59,0a4.56,4.56,0,0,1-.73-.15L38.83,54.82Zm13.55,6.29c.39.57.63.93.89,1.27Q25,24.8,32.38,34.67q19,25.23,38,50.46a2.55,2.55,0,0,0,2.35,1.15c3.06-.07,6.12,0,9.18,0,.38,0,.76,0,1.31-.09-.36-.51-.6-.88-.86-1.23L49.21,41Q39.43,28,29.64,15c-.38-.51-.94-1.24-1.43-1.26C24.45,13.62,20.68,13.66,16.65,13.66Z"/>
</svg>
