<svg width="23" height="22" viewBox="0 0 23 22" fill="none" xmlns="http://www.w3.org/2000/svg">
<path d="M1 2.01943C1.11194 2.01943 1.16119 2.00258 1.21045 2.00258C3.26567 2.00258 5.32313 2.00258 7.37836 2.00258C7.45352 2.01204 7.52591 2.03556 7.59127 2.07175C7.65664 2.10794 7.71365 2.15607 7.75896 2.2133C9.33358 4.16042 10.9007 6.11104 12.4604 8.06518C12.5075 8.12418 12.5612 8.17686 12.6328 8.25483C13.0358 7.84391 13.4231 7.44986 13.8082 7.05369C15.4037 5.42126 17.0015 3.78743 18.6015 2.15219C18.6694 2.07439 18.7647 2.02206 18.8701 2.00468C19.6336 1.99415 20.3993 2.00468 21.2612 2.00468L13.7657 9.69831L22 19.9986H21.6127C19.6582 19.9986 17.7015 19.9986 15.747 19.9986C15.6343 20.0058 15.5216 19.9846 15.4204 19.9372C15.3193 19.8898 15.2334 19.8179 15.1716 19.7289C13.5597 17.7045 11.9418 15.6843 10.3179 13.6684C10.2642 13.601 10.206 13.5377 10.1321 13.4577L8.41045 15.2172C6.91791 16.7485 5.42537 18.2798 3.93284 19.8111C3.84402 19.9069 3.72173 19.9697 3.58806 19.9881C2.87164 20.0028 2.15522 19.9881 1.44104 19.9881C1.38574 19.9818 1.33108 19.9712 1.27761 19.9565L8.99925 12.0184L1 2.01943ZM4.03358 3.3449C4.1209 3.46502 4.17463 3.54088 4.23284 3.61253C5.34627 4.99911 6.45373 6.38569 7.55522 7.77227C10.391 11.3167 13.2269 14.8611 16.0627 18.4055C16.1189 18.4869 16.1976 18.5524 16.2902 18.595C16.3828 18.6377 16.486 18.656 16.5888 18.6479C17.2739 18.6331 17.959 18.6479 18.644 18.6479C18.7291 18.6479 18.8142 18.6479 18.9373 18.6289C18.8567 18.5214 18.803 18.4435 18.7448 18.3697L11.3231 9.10617C9.86343 7.27987 8.40298 5.45357 6.94179 3.62728C6.85672 3.51981 6.73134 3.36598 6.62164 3.36176C5.77985 3.33647 4.93582 3.3449 4.03358 3.3449Z" fill="#69696F"/>
</svg>
