<svg width="33" height="22" viewBox="0 0 33 22" fill="none" xmlns="http://www.w3.org/2000/svg">
<path d="M29.905 4.93055C29.5665 3.78401 28.6293 2.88479 27.4221 2.56692C25.1993 2.00003 16.2636 2.00003 16.2636 2.00003C16.2636 2.00003 7.34483 1.98643 5.09887 2.56692C3.89794 2.88564 2.95626 3.78401 2.62128 4.93055C2.19989 7.1038 1.99053 9.3034 2.00033 11.5132C1.99587 13.7085 2.20434 15.9047 2.62128 18.0644C2.95626 19.2109 3.89794 20.1101 5.09887 20.4331C7.32166 21 16.2636 21 16.2636 21C16.2636 21 25.177 21 27.4221 20.4331C28.6293 20.1101 29.5665 19.2118 29.905 18.0644C30.314 15.9047 30.5135 13.7085 30.4993 11.5132C30.5135 9.3034 30.3184 7.1038 29.905 4.93055ZM13.4092 15.5818V7.42677L20.8473 11.5132L13.4092 15.5818Z" fill="#69696F"/>
</svg>
