<svg width="25" height="17" viewBox="0 0 25 17" fill="none" xmlns="http://www.w3.org/2000/svg">
<path d="M24.4781 2.62207C24.1811 1.59622 23.359 0.791658 22.3001 0.507248C20.3503 2.42498e-05 12.5119 2.43724e-05 12.5119 2.43724e-05C12.5119 2.43724e-05 4.68844 -0.0121431 2.71831 0.507248C1.66486 0.792419 0.838827 1.59622 0.544987 2.62207C0.175342 4.56656 -0.00830802 6.53462 0.000288363 8.5118C-0.00361908 10.4761 0.179249 12.4411 0.544987 14.3734C0.838827 15.3992 1.66486 16.2038 2.71831 16.4928C4.66813 17 12.5119 17 12.5119 17C12.5119 17 20.3307 17 22.3001 16.4928C23.359 16.2038 24.1811 15.4 24.4781 14.3734C24.8368 12.4411 25.0119 10.4761 24.9994 8.5118C25.0119 6.53462 24.8407 4.56656 24.4781 2.62207ZM10.008 12.1521V4.85553L16.5327 8.5118L10.008 12.1521Z" fill="#69696F"/>
</svg>
